<svg width="27" height="25" viewBox="0 0 27 25" fill="none" xmlns="http://www.w3.org/2000/svg">
<path d="M1.30969 0.719533H3.4397C3.4397 0.719533 11.2097 0.149531 13.4997 7.38953C13.4997 7.38953 13.8097 8.79953 13.7297 9.72953V15.8795C13.7297 15.8795 12.7297 10.1495 6.5697 7.94953C4.2297 7.10953 1.29968 7.20954 1.29968 7.20954C1.29968 7.20954 1.32969 0.699533 1.30969 0.719533Z" fill="black"/>
<path d="M26.1497 0.719533H24.0197C24.0197 0.719533 16.2497 0.149531 13.9597 7.38953C13.9597 7.38953 13.6497 8.79953 13.7297 9.72953V15.8795C13.7297 15.8795 14.7297 10.1495 20.8897 7.94953C23.2297 7.10953 26.1597 7.20954 26.1597 7.20954C26.1597 7.20954 26.1297 0.699533 26.1497 0.719533Z" fill="#F04E23"/>
<path d="M26.7597 14.5995V10.9795L24.4297 11.0095C17.3097 11.2495 13.8297 15.7395 13.7197 15.8895H13.7097C13.5997 15.7395 10.1297 11.2495 3.0097 11.0095L0.679688 10.9795V14.5995H6.99969L6.95969 17.7795H6.9697C6.9897 21.4895 9.99969 24.4895 13.7097 24.4895C17.4197 24.4895 20.4297 21.4895 20.4497 17.7795H20.4597L20.4197 14.5995H26.7597Z" fill="black"/>
<path d="M20.8497 7.95954C15.0197 10.0395 13.8097 15.2995 13.6997 15.8395V15.8795C13.9197 15.5995 17.3997 11.2495 24.3997 11.0095L26.1197 10.9895L26.1097 7.21953C26.1197 7.21953 23.1997 7.12954 20.8497 7.95954Z" fill="#719067"/>
<path d="M17.2897 0.879532H10.2997C10.2997 0.879532 13.1497 3.10952 13.7897 5.97952C14.4397 3.10952 17.2897 0.879532 17.2897 0.879532Z" fill="#F04E23"/>
<path d="M13.7597 20.3195C14.3727 20.3195 14.8697 19.8226 14.8697 19.2095C14.8697 18.5965 14.3727 18.0995 13.7597 18.0995C13.1467 18.0995 12.6497 18.5965 12.6497 19.2095C12.6497 19.8226 13.1467 20.3195 13.7597 20.3195Z" fill="#F04E23"/>
</svg>
