<svg width="59" height="25" viewBox="0 0 59 25" fill="none" xmlns="http://www.w3.org/2000/svg">
<path d="M1.30969 0.720006H3.4397C3.4397 0.720006 11.2097 0.150004 13.4997 7.39C13.4997 7.39 13.8097 8.8 13.7297 9.73V15.88C13.7297 15.88 12.7297 10.15 6.5697 7.95C4.2297 7.11 1.29968 7.21001 1.29968 7.21001C1.29968 7.21001 1.32969 0.700006 1.30969 0.720006Z" fill="black"/>
<path d="M26.1497 0.720006H24.0197C24.0197 0.720006 16.2497 0.150004 13.9597 7.39C13.9597 7.39 13.6497 8.8 13.7297 9.73V15.88C13.7297 15.88 14.7297 10.15 20.8897 7.95C23.2297 7.11 26.1597 7.21001 26.1597 7.21001C26.1597 7.21001 26.1297 0.700006 26.1497 0.720006Z" fill="#F04E23"/>
<path d="M26.7597 14.6V10.98L24.4297 11.01C17.3097 11.25 13.8297 15.74 13.7197 15.89H13.7097C13.5997 15.74 10.1297 11.25 3.0097 11.01L0.679688 10.98V14.6H6.99969L6.95969 17.78H6.9697C6.9897 21.49 9.99969 24.49 13.7097 24.49C17.4197 24.49 20.4297 21.49 20.4497 17.78H20.4597L20.4197 14.6H26.7597Z" fill="black"/>
<path d="M20.8497 7.96001C15.0197 10.04 13.8097 15.3 13.6997 15.84V15.88C13.9197 15.6 17.3997 11.25 24.3997 11.01L26.1197 10.99L26.1097 7.22001C26.1197 7.22001 23.1997 7.13001 20.8497 7.96001Z" fill="#719067"/>
<path d="M17.2897 0.880005H10.2997C10.2997 0.880005 13.1497 3.11 13.7897 5.98C14.4397 3.11 17.2897 0.880005 17.2897 0.880005Z" fill="#F04E23"/>
<path d="M13.7597 20.32C14.3727 20.32 14.8697 19.823 14.8697 19.21C14.8697 18.597 14.3727 18.1 13.7597 18.1C13.1467 18.1 12.6497 18.597 12.6497 19.21C12.6497 19.823 13.1467 20.32 13.7597 20.32Z" fill="#F04E23"/>
<path d="M28.3591 3.39984H28.7491C28.7891 3.76984 29.1591 4.11984 29.7391 4.11984C30.3991 4.11984 30.7191 3.72985 30.7191 3.37985C30.7191 2.96985 30.3291 2.77985 29.9191 2.68985L29.3691 2.56985C28.5191 2.38985 28.3991 1.93985 28.3991 1.63985C28.3991 1.01985 29.0291 0.599854 29.7091 0.599854C30.4091 0.599854 30.9591 0.989848 30.9791 1.60985H30.5891C30.5691 1.19985 30.1791 0.92984 29.6991 0.92984C29.2291 0.92984 28.7991 1.21985 28.7991 1.62985C28.7991 1.79985 28.8591 2.09984 29.4691 2.22984L30.0291 2.35985C30.6791 2.50985 31.1291 2.81985 31.1291 3.35985C31.1291 3.88985 30.6491 4.44984 29.7591 4.44984C28.9291 4.45984 28.3891 3.93984 28.3591 3.39984Z" fill="black"/>
<path d="M32.5491 4.05984H34.2991V4.39984H32.1591V0.669846H32.5491V4.05984Z" fill="black"/>
<path d="M34.6591 2.52985C34.6591 1.46985 35.5691 0.589844 36.7391 0.589844C37.9091 0.589844 38.8191 1.46985 38.8191 2.52985C38.8191 3.58985 37.9091 4.44984 36.7391 4.44984C35.5691 4.45984 34.6591 3.58985 34.6591 2.52985ZM38.4191 2.52985C38.4191 1.65985 37.6891 0.92984 36.7391 0.92984C35.7891 0.92984 35.0591 1.66985 35.0591 2.52985C35.0591 3.39985 35.7891 4.11984 36.7391 4.11984C37.6791 4.11984 38.4191 3.39985 38.4191 2.52985Z" fill="black"/>
<path d="M41.8691 0.659851H42.2791L41.0391 4.38985H40.6291L39.3891 0.659851H39.7991L40.8391 3.82985L41.8691 0.659851Z" fill="black"/>
<path d="M43.5991 4.05984H45.6191V4.39984H43.2091V0.669846H45.5591V1.00984H43.5991V2.40985H45.3091V2.74985H43.5991V4.05984Z" fill="black"/>
<path d="M49.5891 0.659851V4.38985H49.1791L47.0691 1.27985V4.38985H46.6791V0.659851H47.0891L49.1891 3.76985V0.659851H49.5891Z" fill="black"/>
<path d="M50.6691 3.39984H51.0591C51.0991 3.76984 51.4691 4.11984 52.0491 4.11984C52.7091 4.11984 53.0291 3.72985 53.0291 3.37985C53.0291 2.96985 52.6391 2.77985 52.2291 2.68985L51.6791 2.56985C50.8291 2.38985 50.7091 1.93985 50.7091 1.63985C50.7091 1.01985 51.3391 0.599854 52.0191 0.599854C52.7191 0.599854 53.2691 0.989848 53.2891 1.60985H52.8991C52.8791 1.19985 52.4891 0.92984 52.0091 0.92984C51.5391 0.92984 51.1091 1.21985 51.1091 1.62985C51.1091 1.79985 51.1691 2.09984 51.7791 2.22984L52.3391 2.35985C52.9891 2.50985 53.4391 2.81985 53.4391 3.35985C53.4391 3.88985 52.9591 4.44984 52.0691 4.44984C51.2391 4.45984 50.6991 3.93984 50.6691 3.39984Z" fill="black"/>
<path d="M57.1791 4.38985H56.6491L54.8491 2.74985V4.38985H54.4591V0.659851H54.8491V2.41985L56.3891 0.659851H56.8791L55.1991 2.56985L57.1791 4.38985Z" fill="black"/>
<path d="M57.8691 4.38985V0.659851H58.2591V4.38985H57.8691Z" fill="black"/>
<path d="M30.1991 5.73985C31.3591 5.73985 32.0391 6.54984 32.0391 7.61984C32.0391 8.67984 31.3691 9.47984 30.1991 9.47984H28.6391V5.74985H30.1991V5.73985ZM30.1991 9.13985C31.1391 9.13985 31.6391 8.47984 31.6391 7.61984C31.6391 6.74984 31.1291 6.07985 30.1991 6.07985H29.0391V9.13985H30.1991Z" fill="black"/>
<path d="M36.0191 5.73985V9.46985H35.6091L33.4991 6.35985V9.46985H33.1091V5.73985H33.5191L35.6191 8.84985V5.73985H36.0191Z" fill="black"/>
<path d="M37.7691 9.13985H39.7891V9.47984H37.3791V5.74985H39.7291V6.08984H37.7691V7.48985H39.4791V7.82985H37.7691V9.13985Z" fill="black"/>
<path d="M42.9091 5.73985H43.3191L42.0791 9.46985H41.6691L40.4291 5.73985H40.8391L41.8791 8.90985L42.9091 5.73985Z" fill="black"/>
<path d="M44.2491 9.46985V5.73985H44.6391V9.46985H44.2491Z" fill="black"/>
<path d="M31.3591 14.5499H30.8291L29.0291 12.9099V14.5499H28.6391V10.8199H29.0291V12.5798L30.5691 10.8199H31.0591L29.3791 12.7298L31.3591 14.5499Z" fill="black"/>
<path d="M34.9591 10.8199V14.5499H34.5491L32.4391 11.4398V14.5499H32.0491V10.8199H32.4591L34.5591 13.9298V10.8199H34.9591Z" fill="black"/>
<path d="M35.1591 15.7798L35.1991 15.4398C35.2891 15.4599 35.4691 15.4698 35.5291 15.4698C36.1391 15.4698 36.3691 15.0899 36.3691 14.6299V10.8199H36.7591V14.6299C36.7591 15.2799 36.4291 15.8199 35.5291 15.8199C35.4191 15.8199 35.2791 15.7998 35.1591 15.7798Z" fill="black"/>
<path d="M38.1191 14.5499V10.8199H38.5091V14.5499H38.1191Z" fill="black"/>
<path d="M39.5691 12.6998C39.5691 11.6398 40.4791 10.7598 41.6491 10.7598C42.1591 10.7598 42.6091 10.9298 42.9591 11.1898L42.6991 11.4298C42.4091 11.2198 42.0491 11.0898 41.6491 11.0898C40.6991 11.0898 39.9691 11.8299 39.9691 12.6898C39.9691 13.5598 40.6991 14.2798 41.6491 14.2798C42.4891 14.2798 43.1091 13.7998 43.1491 13.0598H41.9091V12.7399H43.5791C43.5591 13.9999 42.7691 14.6098 41.6491 14.6098C40.4891 14.6198 39.5691 13.7498 39.5691 12.6998Z" fill="black"/>
<path d="M44.9391 14.2198H46.9591V14.5598H44.5491V10.8298H46.8991V11.1698H44.9391V12.5699H46.6491V12.9099H44.9391V14.2198Z" fill="black"/>
<path d="M30.5691 15.8799H31.1891H30.5691Z" fill="#719067"/>
</svg>
